<svg width="120" height="120" viewBox="0 0 120 120" fill="none" xmlns="http://www.w3.org/2000/svg">
<g clip-path="url(#clip0_1_10)">
<path d="M60 120C26.9 120 0 93.1 0 60C0 26.9 26.9 0 60 0C93.1 0 120 26.9 120 60C120 93.1 93.1 120 60 120Z" fill="white"/>
<path d="M60.5 95C41.525 95 26 79.475 26 60.5C26 41.525 41.525 26 60.5 26V95Z" fill="#0052FF"/>
<path d="M60.5 26C79.475 26 95 41.525 95 60.5C95 79.475 79.475 95 60.5 95V26Z" fill="#CED2DB"/>
<path fill-rule="evenodd" clip-rule="evenodd" d="M60.5 26.0365C60.3079 26.0365 60.1165 26.0379 59.9256 26.0411L59.7499 26.044V26.0535C53.399 26.339 47.7459 30.2377 43.6637 36.2393C43.0312 37.1691 42.4352 38.1506 41.8789 39.1793H33.4207L33.3672 39.2477C33.0716 39.6243 32.7838 40.0073 32.5038 40.3963L32.3006 40.6792H41.1121C38.4927 46.1031 36.9259 52.6708 36.8224 59.7505H26.0434L26.0405 59.9261C26.0374 60.1173 26.0359 60.3088 26.0359 60.5006C26.0359 60.6923 26.0374 60.8838 26.0405 61.075L26.0434 61.2507H36.8983C37.0015 68.3298 38.5623 74.8974 41.1717 80.322H32.3006L32.5038 80.6046C32.7838 80.9939 33.0716 81.3768 33.3672 81.7534L33.4207 81.8219H41.9355C42.4904 82.8523 43.0853 83.8358 43.7166 84.7673C47.7819 90.7651 53.4105 94.6645 59.7358 94.9563H59.7401C59.9926 94.9617 60.2458 94.9646 60.4997 94.9646C60.6918 94.9646 60.8832 94.9632 61.0741 94.96L61.2498 94.9572V94.9477C67.6004 94.6619 73.2535 90.7634 77.336 84.7618C77.9685 83.8321 78.5645 82.8502 79.1205 81.8219H87.5791L87.6325 81.7534C87.9281 81.3768 88.2159 80.9939 88.4959 80.6046L88.6991 80.322H79.8876C82.507 74.898 84.0736 68.3303 84.1773 61.2507H94.9563L94.9592 61.075C94.9623 60.8838 94.9641 60.6923 94.9641 60.5006C94.9641 60.3088 94.9623 60.1173 94.9592 59.9261L94.9563 59.7505H84.1015C83.9982 52.6714 82.4374 46.1037 79.8281 40.6792H88.6991L88.4959 40.3963C88.2159 40.0073 87.9281 39.6243 87.6325 39.2477L87.5791 39.1793H79.0642C78.5093 38.1486 77.9145 37.1651 77.2828 36.2336C73.2199 30.2389 67.5949 26.3404 61.2737 26.0451L61.2691 26.0448C61.0135 26.0394 60.757 26.0365 60.5 26.0365ZM61.2498 39.1793V27.5459C66.9472 27.8311 72.1662 31.3578 76.0414 37.0751C76.4971 37.7475 76.9338 38.4496 77.3495 39.1793H61.2498ZM44.904 37.0828C48.7921 31.3668 54.0304 27.8394 59.7499 27.5551V39.1793H43.5956C44.0116 38.4525 44.448 37.753 44.904 37.0828ZM38.3225 59.7505C38.4303 52.5868 40.0806 46.0019 42.786 40.6792H59.7499V59.7505H38.3225ZM61.2498 59.7505V40.6792H78.1557C80.8501 46.0025 82.4938 52.5874 82.6013 59.7505H61.2498ZM42.8443 80.322C40.1496 74.9986 38.506 68.4137 38.3984 61.2507H59.7499V80.322H42.8443ZM61.2498 80.322V61.2507H82.6772C82.5691 68.4143 80.9188 74.9992 78.2135 80.322H61.2498ZM44.9583 83.9258C44.5026 83.2533 44.0662 82.5512 43.6502 81.8219H59.7499V93.4553C54.0525 93.1698 48.8332 89.643 44.9583 83.9258ZM61.2498 93.446V81.8219H77.4041C76.9881 82.5487 76.5514 83.2481 76.0957 83.9183C72.2076 89.6344 66.9693 93.1617 61.2498 93.446Z" fill="#0A0B0D"/>
<path d="M60.5003 72.0003C54.175 72.0003 49 66.8253 49 60.5003C49 54.175 54.175 49 60.5003 49V72.0003Z" fill="#CED2DB" stroke="black" stroke-width="1.4375"/>
<path d="M60.5 49C66.825 49 72.0003 54.175 72.0003 60.5003C72.0003 66.8253 66.825 72.0003 60.5 72.0003V49Z" fill="#0052FF" stroke="black" stroke-width="1.4375"/>
</g>
<defs>
<clipPath id="clip0_1_10">
<rect width="120" height="120" fill="white"/>
</clipPath>
</defs>
</svg>
