<svg width="48" height="48" viewBox="0 0 48 48" fill="none" xmlns="http://www.w3.org/2000/svg">
<path d="M24 0H0V48H24V0Z" fill="#CED2DB"/>
<path fill-rule="evenodd" clip-rule="evenodd" d="M24 4H44V44H4V24V4H24Z" fill="#0A0B0D"/>
<path d="M44 4H24V24H44V4Z" fill="#0052FF"/>
<path d="M44 24H24V44H44V24Z" fill="#CED2DB"/>
<path d="M12 12H4L12 4V12Z" fill="#0052FF"/>
<path d="M0 0L12 4L4 12L0 0Z" fill="#CED2DB"/>
<path d="M13.9414 33C15.3221 33 16.4414 31.8807 16.4414 30.5C16.4414 29.1193 15.3221 28 13.9414 28C12.5607 28 11.4414 29.1193 11.4414 30.5C11.4414 31.8807 12.5607 33 13.9414 33Z" fill="white"/>
<path d="M39 34L29 39V29L39 34Z" fill="#0A0B0D"/>
<path d="M39 9H31V12H39V9Z" fill="#0A0B0D"/>
<path d="M31 9H30.5V18H31V9Z" fill="#0A0B0D"/>
<path d="M39 9H38.5V18H39V9Z" fill="#0A0B0D"/>
<path d="M29 20C30.1046 20 31 19.1046 31 18C31 16.8954 30.1046 16 29 16C27.8954 16 27 16.8954 27 18C27 19.1046 27.8954 20 29 20Z" fill="#0052FF"/>
<path d="M37 20C38.1046 20 39 19.1046 39 18C39 16.8954 38.1046 16 37 16C35.8954 16 35 16.8954 35 18C35 19.1046 35.8954 20 37 20Z" fill="#0A0B0D"/>
<path fill-rule="evenodd" clip-rule="evenodd" d="M31 9H30.5V16.6771C30.1335 16.2619 29.5973 16 29 16C27.8954 16 27 16.8954 27 18C27 19.1046 27.8954 20 29 20C30.1046 20 31 19.1046 31 18V12H38.5V16.6771C38.1335 16.2619 37.5973 16 37 16C35.8954 16 35 16.8954 35 18C35 19.1046 35.8954 20 37 20C38.1046 20 39 19.1046 39 18V12V9H38.5H31Z" fill="white"/>
<path d="M18.8409 39.0001C18.8409 37.6899 18.3205 36.4334 17.394 35.507C16.4676 34.5805 15.2111 34.0601 13.9009 34.0601C12.5908 34.0601 11.3343 34.5805 10.4078 35.507C9.4814 36.4334 8.96094 37.6899 8.96094 39.0001H9.01094H18.8409Z" fill="white"/>
</svg>
